<svg width="56" height="57" viewBox="0 0 56 57" fill="none" xmlns="http://www.w3.org/2000/svg">
<path d="M48.0835 41.6694C48.3782 40.1 48.3706 38.4884 48.0613 36.9218L52.3105 26.6325C52.3109 26.6257 52.3109 26.6188 52.3105 26.612C52.9991 24.7204 54.0082 22.9625 55.2933 21.4157C55.6131 21.0768 55.7417 20.5993 55.6357 20.145L53.8933 12.5953C53.8726 12.5164 53.8413 12.4406 53.8005 12.37C53.7931 12.356 53.7903 12.3393 53.7829 12.3263C53.7755 12.3132 53.743 12.2816 53.7244 12.2574C53.6865 12.2016 53.6426 12.1501 53.5936 12.1038C53.5613 12.081 53.5276 12.0605 53.4925 12.0423C53.4472 12.0089 53.3991 11.9796 53.3487 11.9548C53.2787 11.9283 53.2058 11.9105 53.1316 11.9018C53.1102 11.9018 53.0917 11.8878 53.0703 11.8859C52.8925 11.874 52.715 11.9138 52.5591 12.0004C52.5452 12.0079 52.5285 12.0107 52.5146 12.0191H52.5053L45.9543 16.1216C45.5576 16.3681 45.3113 16.7985 45.2993 17.2666C45.1173 19.2766 44.5896 21.2397 43.7397 23.069V23.0792L41.616 28.2299C40.5737 27.6739 39.4578 27.2696 38.302 27.029C38.7395 23.9989 38.9004 20.9349 38.7826 17.8754C40.5096 15.7963 41.3385 13.1116 41.0853 10.417C40.5054 4.99163 35.6188 1.07343 35.4101 0.908659C35.0963 0.66075 34.6597 0.642106 34.3261 0.862374C33.9925 1.08264 33.8368 1.49239 33.9395 1.8796C34.4174 3.67998 34.0036 5.57996 30.4743 9.48699C28.8886 11.0233 28.386 13.369 29.2023 15.4234C29.5144 16.2092 29.9616 16.9339 30.5235 17.5645C30.2989 19.0027 30.1227 20.3647 30.0011 21.6912C29.7919 23.8853 29.7379 26.0915 29.8397 28.2932C29.012 28.7435 28.2371 29.2852 27.5295 29.9083L23.0298 10.6013C23.0298 10.5817 23.0112 10.5678 23.0057 10.5501C22.9906 10.488 22.9688 10.4278 22.9407 10.3704L18.3445 1.85353C17.8845 1.00107 16.9128 0.56302 15.9721 0.784075C15.0315 1.00513 14.3547 1.83059 14.3198 2.79934L13.971 12.4761C13.9712 12.546 13.979 12.6156 13.9942 12.6837C13.9942 12.6986 13.9942 12.7117 13.9942 12.7256L18.5848 32.3836C17.8606 32.4157 17.1418 32.5233 16.4398 32.7048L11.3899 20.468C10.985 19.5326 9.91095 19.0912 8.96839 19.4728L1.2502 22.6789C0.305596 23.0745 -0.143306 24.1613 0.245414 25.1114L7.09428 41.689C3.08025 41.9005 -0.035543 45.2814 0.0680621 49.3132C0.171667 53.345 3.45697 56.5604 7.47652 56.564H48.2988C50.9505 56.5254 53.3803 55.0703 54.6728 52.7468C55.9654 50.4234 55.9243 47.5845 54.5652 45.2996C53.206 43.0147 50.7352 41.6309 48.0835 41.6694ZM47.1381 17.5738L51.0274 15.1385L49.6506 18.4749C49.4543 18.95 49.679 19.4947 50.1525 19.6916C50.6259 19.8885 51.1688 19.663 51.3651 19.188L52.7419 15.8516L53.7727 20.3321C52.6698 21.682 51.7639 23.1825 51.0821 24.7883C50.1148 25.2382 49.0041 25.2616 48.0189 24.8527C47.0336 24.4439 46.2638 23.6401 45.8958 22.6361C46.5474 21.0164 46.9657 19.3119 47.1381 17.5738ZM45.0042 24.8824C45.618 25.6353 46.4145 26.2171 47.3172 26.572C48.0347 26.8816 48.8064 27.0449 49.5875 27.0523C49.7754 27.0516 49.9631 27.0401 50.1497 27.0179L47.1892 34.1859C46.3027 32.2247 44.9313 30.5235 43.2053 29.2437L45.0042 24.8824ZM32.2937 18.2338L36.9548 18.5196C36.9836 19.3891 36.9734 20.2883 36.9446 21.2015C35.3918 21.3129 33.8313 21.2372 32.2965 20.9763C32.1796 20.9595 32.0654 20.9465 31.9495 20.9307C32.0422 20.0537 32.1554 19.1656 32.2918 18.2338H32.2937ZM31.8511 10.7372C34.3144 8.01056 35.591 5.91323 35.8879 3.94156C37.6585 5.76944 38.8272 8.09859 39.2362 10.6143C39.4311 12.8044 38.7562 14.983 37.3584 16.6764C35.5257 16.5647 33.7132 16.453 31.9207 16.3413C31.1505 15.6188 30.7074 14.6123 30.694 13.5545C30.6805 12.4967 31.0977 11.4792 31.8493 10.7372H31.8511ZM31.7806 22.786L32.0497 22.8213C33.2452 23.0068 34.452 23.1098 35.6615 23.1295C36.0456 23.1295 36.4501 23.0987 36.8556 23.0671C36.7711 24.2652 36.6329 25.5163 36.4575 26.8093C36.2284 26.7972 36.0039 26.7749 35.7738 26.7749C34.373 26.7774 32.9828 27.0176 31.6619 27.4852C31.6191 25.9178 31.6581 24.3492 31.7788 22.786H31.7806ZM24.6042 33.672L21.9499 22.327C21.8258 21.8348 21.3315 21.5332 20.8389 21.6489C20.3462 21.7647 20.0368 22.2552 20.1435 22.7515L22.5288 32.9627C21.873 32.7273 21.1955 32.558 20.5062 32.4572L16.4342 15.0212C17.0047 15.2818 17.624 15.4171 18.2508 15.4178C18.3093 15.4178 18.3714 15.4094 18.4308 15.4066L19.0867 18.2171C19.1574 18.546 19.3995 18.8111 19.72 18.9103C20.0405 19.0096 20.3894 18.9276 20.6326 18.6959C20.8758 18.4642 20.9754 18.1188 20.8931 17.7926L20.2363 14.9803C20.8657 14.7007 21.4209 14.2766 21.8571 13.7422L25.9968 31.503C25.4592 32.1758 24.9926 32.9027 24.6042 33.672ZM18.9355 13.4713C17.749 13.7022 16.5375 13.2154 15.8377 12.2267L15.9555 8.94799C16.2783 9.00849 16.6059 9.03964 16.9343 9.04108C17.2515 9.04242 17.5678 9.00712 17.8769 8.93589C18.5028 8.77096 19.0883 8.47883 19.597 8.07759L21.1594 10.9709C20.9732 12.1713 20.1029 13.1506 18.9355 13.4731V13.4713ZM16.3943 2.5964C16.5207 2.56703 16.6511 2.62561 16.7135 2.73976L18.7026 6.43081C18.3438 6.75653 17.9153 6.99537 17.4501 7.12899C16.9747 7.21656 16.4855 7.19331 16.0204 7.06104L16.1717 2.86636C16.1767 2.73628 16.2679 2.62569 16.3943 2.5964ZM9.67999 21.1894L10.3888 22.9079L6.95604 24.3341C6.54908 24.5055 6.31886 24.9409 6.40555 25.3752C6.49224 25.8094 6.87184 26.1223 7.31323 26.1233C7.43513 26.123 7.55581 26.099 7.66857 26.0525L11.1014 24.6254L11.8111 26.3458L10.0938 27.0598C9.68449 27.2297 9.45203 27.6663 9.53872 28.1021C9.62542 28.538 10.0071 28.8515 10.4501 28.8508C10.5716 28.8504 10.692 28.8264 10.8045 28.7801L12.5218 28.0661L13.2315 29.7864L9.79597 31.2153C9.38667 31.3853 9.15421 31.8218 9.2409 32.2577C9.3276 32.6936 9.70928 33.0071 10.1522 33.0064C10.2738 33.0061 10.3942 32.982 10.5066 32.9357L13.9394 31.5095L14.69 33.3276C11.6667 34.7122 9.4498 37.4196 8.68263 40.6641L1.95809 24.3955L9.67999 21.1894ZM48.2988 54.7022H7.47652C4.40213 54.7022 1.90985 52.2015 1.90985 49.1167C1.90985 46.032 4.40213 43.5313 7.47652 43.5313C8.0141 43.5295 8.549 43.6073 9.06395 43.7621C9.34214 43.8464 9.64363 43.7951 9.87851 43.6234C10.1134 43.4517 10.2545 43.1795 10.2599 42.888C10.3259 39.5703 12.2373 36.5689 15.2101 35.1149C18.183 33.661 21.7168 33.9992 24.3621 35.9909C24.5958 36.1655 24.8978 36.2197 25.1774 36.1374C25.457 36.055 25.6818 35.8456 25.7844 35.572C27.597 30.7249 32.6067 27.8738 37.683 28.8002C42.7594 29.7266 46.4477 34.1651 46.4432 39.3422C46.445 40.4068 46.2871 41.4656 45.9747 42.4831C45.8772 42.7996 45.9547 43.1443 46.1783 43.3882C46.4018 43.632 46.7377 43.7383 47.0602 43.6672C47.467 43.5773 47.8823 43.5318 48.2988 43.5313C51.3732 43.5313 53.8655 46.032 53.8655 49.1167C53.8655 52.2015 51.3732 54.7022 48.2988 54.7022Z" fill="white"/>
</svg>
