<svg width="56" height="45" viewBox="0 0 56 45" fill="none" xmlns="http://www.w3.org/2000/svg">
<path d="M52.7991 22.3563H46.4044V5.59994C46.4012 3.03063 44.3284 0.94852 41.7705 0.945465H13.9672C11.4093 0.94852 9.33642 3.03063 9.33328 5.60005V11.1855H4.24897C1.93956 11.188 0.0680497 13.0679 0.0655518 15.3876V40.496C0.0680497 42.8158 1.93956 44.6956 4.24897 44.6981H19.0514C20.8152 44.6928 22.3856 43.5751 22.9753 41.9054H38.9901C39.502 41.9054 39.9169 41.4887 39.9169 40.9745V39.1127C39.9169 37.5703 38.672 36.3199 37.1366 36.3199H34.3562V32.5963H41.7705V41.8123C41.7705 43.4062 43.0568 44.6981 44.6434 44.6981H52.799C54.3858 44.6981 55.672 43.406 55.672 41.8123V25.2422C55.6721 23.6484 54.3858 22.3563 52.7991 22.3563ZM21.3814 40.496C21.3805 41.7881 20.3378 42.8353 19.0515 42.8364H4.24897C2.96263 42.8354 1.92012 41.7881 1.91903 40.496V40.0436H21.3813V40.496H21.3814ZM21.3814 38.1818H1.91914V17.7018H21.3814V38.1818ZM21.3814 15.84H1.91914V15.3876C1.92012 14.0955 2.96274 13.0483 4.24908 13.0472H19.0515C20.3378 13.0482 21.3804 14.0955 21.3814 15.3876V15.84ZM37.1366 38.1818C37.6484 38.1818 38.0633 38.5986 38.0633 39.1127V40.0435H23.2349V38.1818H37.1366ZM23.2349 36.3199V32.5963H32.5026V36.3199H23.2349ZM41.7705 30.7345H33.4295H23.2349V27.9418H41.7705V30.7345ZM41.7705 25.2422V26.08H23.2349V15.3876C23.2323 13.0679 21.3608 11.188 19.0515 11.1855H11.1869V5.60005C11.1869 4.05772 12.4316 2.80732 13.9672 2.80732H41.7705C43.306 2.80732 44.5508 4.05761 44.5508 5.60005V22.3657C43.004 22.4158 41.7747 23.6876 41.7705 25.2422ZM53.8185 41.8123C53.8185 42.3779 53.362 42.8364 52.799 42.8364H44.6434C44.0804 42.8364 43.624 42.3779 43.624 41.8123V40.9745H53.8185V41.8123ZM53.8185 39.1127H43.624V27.9418H53.8185V39.1127ZM53.8185 26.08H43.624V25.2422C43.624 24.6767 44.0804 24.2182 44.6434 24.2182H52.799C53.362 24.2182 53.8185 24.6767 53.8185 25.2422V26.08Z" fill="white"/>
</svg>
